<?xml version="1.0" encoding="UTF-8" standalone="no"?>
<svg
   viewBox="0 0 600 600"
   width="600"
   height="600"
   font-family="Inter, 'Helvetica Neue', Helvetica, Arial, sans-serif"
   version="1.1"
   id="svg70"
   sodipodi:docname="embedded_testing.svg"
   inkscape:version="1.2.2 (b0a8486541, 2022-12-01)"
   xmlns:inkscape="http://www.inkscape.org/namespaces/inkscape"
   xmlns:sodipodi="http://sodipodi.sourceforge.net/DTD/sodipodi-0.dtd"
   xmlns="http://www.w3.org/2000/svg"
   xmlns:svg="http://www.w3.org/2000/svg">
  <sodipodi:namedview
     id="namedview72"
     pagecolor="#ffffff"
     bordercolor="#666666"
     borderopacity="1.0"
     inkscape:showpageshadow="2"
     inkscape:pageopacity="0.0"
     inkscape:pagecheckerboard="0"
     inkscape:deskcolor="#d1d1d1"
     showgrid="false"
     showguides="true"
     inkscape:zoom="1.5733333"
     inkscape:cx="264.72458"
     inkscape:cy="323.51696"
     inkscape:window-width="2560"
     inkscape:window-height="1403"
     inkscape:window-x="0"
     inkscape:window-y="0"
     inkscape:window-maximized="1"
     inkscape:current-layer="svg70">
    <sodipodi:guide
       position="0,300"
       orientation="0,1"
       id="guide457"
       inkscape:locked="false"
       inkscape:label=""
       inkscape:color="rgb(0,134,229)" />
    <sodipodi:guide
       position="300,450"
       orientation="-1,0"
       id="guide459"
       inkscape:locked="false"
       inkscape:label=""
       inkscape:color="rgb(0,134,229)" />
  </sodipodi:namedview>
  <defs
     id="defs2" />
  <path
     d="M 195.94 191.96 L 184.32 110.61 L 90.62 108.12 A 284 284 0 0 1 281.49 16.60 L 336.38 89.31 L 277.62 151.68 A 150 150 0 0 0 195.94 191.96 Z"
     fill="#4FA3DC"
     id="path6" />
  <path
     d="M 319.59 151.28 L 375.95 91.47 L 319.47 16.67 A 284 284 0 0 1 510.03 108.83 L 487.40 197.08 L 402.01 190.03 A 150 150 0 0 0 319.59 151.28 Z"
     fill="#E23B30"
     id="path8" />
  <path
     d="M 428.48 222.59 L 510.38 229.36 L 533.66 138.57 A 284 284 0 0 1 580.41 345.02 L 497.31 382.35 L 449.58 311.19 A 150 150 0 0 0 428.48 222.59 Z"
     fill="#8C98A1"
     id="path10" />
  <path
     d="M 440.63 352.19 L 486.40 420.44 L 571.90 382.03 A 284 284 0 0 1 439.64 547.30 L 358.63 505.61 L 384.52 423.92 A 150 150 0 0 0 440.63 352.19 Z"
     fill="#4ECE7C"
     id="path12" />
  <path
     d="M 346.88 442.49 L 322.05 520.83 L 405.39 563.72 A 284 284 0 0 1 193.72 563.36 L 175.81 474.04 L 255.81 443.34 A 150 150 0 0 0 346.88 442.49 Z"
     fill="#F4A81C"
     id="path14" />
  <path
     d="M 217.83 425.49 L 141.10 454.92 L 159.52 546.82 A 284 284 0 0 1 27.83 381.11 L 86.50 311.41 L 160.38 354.82 A 150 150 0 0 0 217.83 425.49 Z"
     fill="#3A33CC"
     id="path16" />
  <path
     d="M 150.65 314.00 L 79.80 272.36 L 19.44 344.06 A 284 284 0 0 1 66.89 137.78 L 157.96 140.19 L 170.08 225.02 A 150 150 0 0 0 150.65 314.00 Z"
     fill="#16A0A8"
     id="path18" />
  <text
     x="299.8642"
     y="288.2699"
     text-anchor="middle"
     fill="#1a1a1a"
     font-size="42.7887px"
     font-weight="600"
     id="text26"
     style="stroke-width:1;stroke:#ffffff;stroke-opacity:1;stroke-dasharray:none;stroke-linejoin:miter;stroke-linecap:butt;paint-order:markers stroke fill"><tspan
       x="299.8642"
       dy="-2.1394341"
       id="tspan22"
       style="stroke-width:1;stroke:#ffffff;stroke-opacity:1;stroke-dasharray:none;stroke-linejoin:miter;stroke-linecap:butt;paint-order:markers stroke fill">Embedded</tspan><tspan
       x="299.8642"
       dy="49.634872"
       id="tspan24"
       style="stroke-width:1;stroke:#ffffff;stroke-opacity:1;stroke-dasharray:none;stroke-linejoin:miter;stroke-linecap:butt;paint-order:markers stroke fill">Testing</tspan></text>
  <text
     x="243.49553"
     y="95.586967"
     text-anchor="middle"
     fill="#ffffff"
     font-size="20px"
     font-weight="600"
     id="text32"><tspan
       x="243.49553"
       dy="-11"
       id="tspan28">Test</tspan><tspan
       x="243.49553"
       dy="23"
       id="tspan30">Planning</tspan></text>
  <text
     x="428.42142"
     y="122.25359"
     text-anchor="middle"
     fill="#ffffff"
     font-size="20px"
     font-weight="600"
     id="text38"><tspan
       x="428.42142"
       dy="-11"
       id="tspan34">Test</tspan><tspan
       x="428.42142"
       dy="23"
       id="tspan36">Design</tspan></text>
  <text
     x="521.05328"
     y="283.68359"
     text-anchor="middle"
     fill="#ffffff"
     font-size="20px"
     font-weight="600"
     id="text44"><tspan
       x="521.05328"
       dy="-11"
       id="tspan40">Unit</tspan><tspan
       x="521.05328"
       dy="23"
       id="tspan42">Testing</tspan></text>
  <text
     x="456.73425"
     y="461.86176"
     text-anchor="middle"
     fill="#ffffff"
     font-size="20px"
     font-weight="600"
     id="text50"
     inkscape:transform-center-x="-165.26501"
     inkscape:transform-center-y="149.745"><tspan
       x="456.73425"
       dy="-11"
       id="tspan46">Integration</tspan><tspan
       x="456.73425"
       dy="23"
       id="tspan48">Testing</tspan></text>
  <text
     x="269.57132"
     y="517.95856"
     text-anchor="middle"
     fill="#ffffff"
     font-size="20px"
     font-weight="600"
     id="text56"><tspan
       x="269.57132"
       dy="-11"
       id="tspan52">System</tspan><tspan
       x="269.57132"
       dy="23"
       id="tspan54">Testing</tspan></text>
  <text
     x="110.25568"
     y="412.79858"
     text-anchor="middle"
     fill="#ffffff"
     font-size="20px"
     font-weight="600"
     id="text62"><tspan
       x="110.25568"
       dy="-11"
       id="tspan58">Regression</tspan><tspan
       x="110.25568"
       dy="23"
       id="tspan60">Testing</tspan></text>
  <text
     x="102.73694"
     y="223.32414"
     text-anchor="middle"
     fill="#ffffff"
     font-size="20px"
     font-weight="600"
     id="text68"><tspan
       x="102.73694"
       dy="-11"
       id="tspan64">Review &amp;</tspan><tspan
       x="102.73694"
       dy="23"
       id="tspan66">Reporting</tspan></text>
</svg>
